# xmcd
#
# Track frame offsets:
# 150
# 25673
# 46722
# 65644
# 87059
# 108632
# 128157
# 163368
# 194941
# 218129
# 243045
# 253165
# 271802
# 285112
#
# Disc length: 4020 seconds
#
#
# Revision: 0
# Processed by: cddbd v1.5.2PL0 Copyright (c) Steve Scherf et al.
# Submitted via: FreeRIP 2.951 
#
DISCID=c60fb20e
DTITLE=Big Dave McLean and Doc MacLean - Big Road Blues
DYEAR=2007
DGENRE=Blues
TTITLE0=01-Feel Like Goin' Home
TTITLE1=02-Charlies James' Blues
TTITLE2=03-Jimmy Lee Lackson's Blues
TTITLE3=04-Sweet Home Chicago
TTITLE4=05-Bone Train
TTITLE5=06-You Got to Move
TTITLE6=07-Johnson Terraplane
TTITLE7=08-Litle Red Rooster
TTITLE8=09-Angola Prison Blues
TTITLE9=10-Rainin' In My Heart
TTITLE10=11-Preacher Went A-Huntin'
TTITLE11=12-You Need Meat
TTITLE12=13-Three Cards on a Coffin
TTITLE13=14-Walking Blues
EXTD=
EXTT0=
EXTT1=
EXTT2=
EXTT3=
EXTT4=
EXTT5=
EXTT6=
EXTT7=
EXTT8=
EXTT9=
EXTT10=
EXTT11=
EXTT12=
EXTT13=
PLAYORDER=
